<svg width="524" height="100" viewBox="0 0 524 100" fill="none" xmlns="http://www.w3.org/2000/svg">
<path d="M490.364 41.861C492.249 47.8126 494.63 55.2517 495.572 58.3766C496.564 61.5014 497.506 64.8254 497.605 65.6686C497.754 66.5612 498.003 67.3053 498.251 67.3053C498.45 67.3013 499.591 63.9795 500.78 59.9645C501.971 55.947 504.5 47.8619 510.006 31.3454L516.453 31.1969C520.024 31.1473 523.051 31.2466 523.249 31.445C523.396 31.6969 522.206 35.6134 520.57 40.2731C518.933 44.8858 514.37 57.7321 510.452 68.7926C506.484 79.8533 502.566 90.1705 501.673 91.8073C500.78 93.3944 499.292 95.3281 498.35 96.1217C497.407 96.8657 495.523 98.007 494.134 98.6022C492.1 99.5445 490.563 99.7923 485.702 99.9411C482.081 100.09 479.353 99.9408 478.758 99.6432C477.816 99.1474 477.816 98.9485 478.411 94.9811C478.758 92.7001 479.254 90.3696 479.502 89.7243C479.948 88.7323 480.246 88.6327 482.875 88.9303C485.008 89.1783 486.099 89.079 487.339 88.4342C488.182 87.9878 489.372 86.8963 489.918 86.0036C490.463 85.1604 490.91 83.8707 490.91 83.1764C490.909 82.4796 487.635 73.0075 483.668 62.0973C479.7 51.1855 475.534 39.9753 474.492 37.1481C473.451 34.3711 472.707 31.8419 472.855 31.5934C473.004 31.2958 475.931 31.0973 486.942 31.0973L490.364 41.861ZM11.9794 0.742825C14.3106 -0.0506901 17.4869 -0.100097 85.9316 0.0982938L88.6601 1.43716C90.1481 2.18124 92.479 3.81783 93.7685 5.15689C95.1077 6.44646 96.7935 8.77792 98.8271 12.9938V85.9049L97.4882 88.6325C96.6947 90.3188 95.0579 92.3522 93.2724 93.9889C91.4869 95.6256 89.3543 97.015 87.6679 97.6598C85.0392 98.6022 83.7988 98.6518 49.1289 98.6022C16.9393 98.5526 13.0703 98.4536 11.1855 97.7096C9.99523 97.2633 8.06123 96.1719 6.82124 95.3288C5.58129 94.436 3.84491 92.6504 2.95209 91.3112C2.0594 89.9722 1.01793 87.8891 0.62104 86.6491C-0.0237503 84.7643 -0.12305 79.2584 0.124946 12.9938L1.26557 10.5133C1.91039 9.12458 3.05093 7.23983 3.79487 6.29751C4.58842 5.35517 6.17579 3.8675 7.36616 3.07388C8.50694 2.28029 10.6403 1.18922 11.9794 0.742825ZM49.4775 7.3395C20.2139 7.3395 15.2536 7.43885 13.7656 8.08365C12.8232 8.48046 11.3845 9.42269 10.6406 10.1667C9.847 10.9107 8.80528 12.3495 8.25971 13.3415C7.36712 15.1269 7.31733 16.766 7.31733 49.3004C7.31733 81.0936 7.41729 83.5737 8.21088 85.4088C8.70684 86.4999 9.99574 88.1369 11.0869 88.9801C12.2276 89.9721 14.0139 90.8156 15.5019 91.1628C17.1893 91.5099 28.7954 91.6086 50.9648 91.5094L83.9492 91.361C87.3713 89.4267 89.0572 87.8885 89.9003 86.7477L91.3886 84.5661C91.6366 27.7749 91.5376 15.8703 91.1904 14.5807C90.8927 13.5887 89.9004 11.9523 89.0078 10.9108C88.1646 9.91882 86.5276 8.72807 85.4365 8.23208C83.6013 7.38903 81.2686 7.28991 49.4775 7.3395ZM231.506 30.6012C232.994 30.3533 236.118 30.3038 238.449 30.403C240.78 30.5518 243.906 31.0476 245.393 31.5436C246.881 31.99 249.262 33.0813 250.602 33.9245C251.99 34.7677 253.726 36.3058 254.569 37.3473C255.363 38.4385 256.454 40.2734 256.95 41.5133C257.446 42.7531 257.794 44.2905 257.744 44.985C257.546 46.225 257.545 46.2253 245.393 46.4733L244.55 44.6383C244.054 43.5969 242.914 42.3566 241.922 41.7614C240.682 41.0174 239.293 40.7692 236.962 40.7692C234.581 40.7692 233.291 41.0175 232.002 41.7614C231.06 42.3564 230.068 43.348 229.819 43.9928C229.571 44.6872 229.521 45.8289 229.72 46.5729C229.918 47.5151 230.613 48.2593 231.902 48.904C232.894 49.4 236.763 50.3914 240.434 51.1354C244.997 52.0282 248.27 52.9712 250.602 54.112C252.833 55.2031 254.768 56.5417 255.958 57.9303C256.95 59.1207 258.14 61.1054 258.537 62.3454C258.983 63.5854 259.281 65.4701 259.281 66.5612C259.281 67.6524 258.984 69.6364 258.587 71.0251C258.14 72.4138 257.049 74.4474 255.908 75.737C254.867 76.9769 252.684 78.6636 251.048 79.5563C249.461 80.3995 246.782 81.441 245.145 81.8874C243.36 82.3338 240.037 82.6803 236.862 82.6803C233.093 82.6803 230.663 82.4325 228.679 81.7878C227.091 81.2918 224.611 80.151 223.123 79.2086C221.635 78.2663 219.701 76.58 218.759 75.4889C217.866 74.3978 216.725 72.7116 216.278 71.7692C215.881 70.8268 215.386 69.2891 214.89 66.8092L227.786 66.859L228.777 68.3961C229.323 69.2393 230.414 70.4296 231.158 70.9753C232.2 71.7192 233.539 72.0667 236.118 72.2155C238.102 72.3147 240.533 72.1156 241.574 71.818C242.566 71.5204 243.856 70.6779 244.401 69.8844C244.996 69.1404 245.443 67.9495 245.393 67.1559C245.393 66.2632 244.897 65.3703 243.905 64.5768C242.864 63.7337 240.929 63.0395 237.606 62.2956C234.928 61.7004 231.109 60.8072 229.175 60.3112C227.191 59.7656 224.66 58.9222 223.569 58.3766C222.478 57.8309 220.792 56.6413 219.8 55.7487C218.808 54.9055 217.568 53.3176 217.072 52.276C216.576 51.2839 215.981 49.1511 215.832 47.5641C215.584 45.5803 215.783 43.8444 216.378 41.7614C217.072 39.331 217.717 38.289 219.999 36.0075C221.983 34.0733 223.719 32.9328 225.802 32.1393C227.438 31.5441 230.018 30.8492 231.506 30.6012ZM442.799 30.6012C444.287 30.3533 447.213 30.254 449.246 30.3532C451.28 30.502 454.405 30.998 456.19 31.5436C458.075 32.0892 460.655 33.4286 462.391 34.6686C464.027 35.9084 465.961 37.7434 466.705 38.8346C467.449 39.8762 468.639 42.0097 469.284 43.4977C469.978 44.9857 470.921 48.0107 471.318 50.193C471.765 52.3754 472.062 55.401 471.814 59.6168L437.591 59.8649L437.889 62.2458C438.087 63.5353 438.682 65.519 439.277 66.6598C439.872 67.9493 441.161 69.3389 442.401 70.1325C444.038 71.2237 445.179 71.5704 447.709 71.6696C449.842 71.7688 451.677 71.5708 452.967 71.0749C454.058 70.678 455.695 69.537 458.175 66.8092H464.622C468.441 66.8092 471.169 67.0077 471.318 67.3053C471.466 67.5543 471.02 68.9924 470.376 70.3805C469.731 71.8189 468.491 73.9017 467.647 74.9928C466.755 76.084 464.771 77.8204 463.233 78.862C461.696 79.9035 458.968 81.1923 457.183 81.7379C454.901 82.4323 452.52 82.6803 448.998 82.6803C445.923 82.6803 442.997 82.3833 441.31 81.8874C439.822 81.441 437.293 80.3993 435.656 79.5065C434.069 78.6634 431.689 76.7788 430.35 75.3405C429.01 73.9518 427.373 71.5709 426.679 70.1325C426.034 68.7437 425.142 65.9655 424.695 64.0807C424.298 62.1464 423.951 58.8236 423.951 56.6413C423.951 54.4589 424.298 51.0856 424.695 49.2008C425.092 47.2666 426.083 44.3903 426.877 42.7536C427.67 41.1168 429.407 38.5873 430.746 37.0993C432.383 35.3137 434.218 33.9246 436.599 32.7838C438.533 31.8415 441.311 30.8988 442.799 30.6012ZM182.154 30.7995C184.188 30.4027 187.411 30.2044 189.842 30.3532C192.173 30.502 195.199 30.9486 196.538 31.3454C197.927 31.7422 200.258 32.7836 201.746 33.6764C203.234 34.5692 205.168 36.3056 206.11 37.5456C207.053 38.7855 208.095 40.8687 208.442 42.2575C208.938 43.9938 209.186 50.1455 209.682 81.6891H195.794L195.298 76.2331L192.669 78.5641C190.883 80.2007 189.148 81.2426 187.114 81.8874C184.783 82.5817 183.146 82.78 179.675 82.5817C176.699 82.4329 174.466 82.036 172.978 81.3913C171.738 80.7961 169.904 79.6051 168.812 78.6628C167.771 77.7204 166.332 75.9847 165.638 74.7448C164.596 72.9593 164.298 71.6692 164.149 68.2965C164.001 65.6184 164.15 63.3373 164.597 62.0973C164.944 61.0061 166.034 59.22 166.977 58.1784C167.968 57.1368 170.052 55.5991 171.64 54.8551C173.177 54.0616 175.855 53.0695 177.591 52.7223C179.277 52.3255 183.245 51.6316 186.37 51.1852C189.495 50.6892 192.669 50.0439 193.463 49.6471C194.207 49.2503 194.951 48.4569 195.1 47.8122C195.248 47.2169 195.248 46.1754 195.1 45.4811C194.951 44.7867 194.306 43.7454 193.711 43.1999C193.066 42.6048 192.075 41.8609 191.479 41.5631C190.835 41.2655 188.9 41.0172 187.114 41.0172C185.329 41.0172 183.295 41.3148 182.551 41.7116C181.757 42.0588 180.617 43.0012 179.923 43.7946C179.228 44.5882 178.483 45.7297 178.285 46.3249C177.988 47.2668 177.591 47.4652 175.855 47.4157C174.665 47.4157 172.185 47.1176 170.3 46.82C168.366 46.4728 166.68 45.8779 166.432 45.4811C166.084 44.9851 166.282 43.8445 166.977 42.0094C167.572 40.3727 168.911 38.2394 170.35 36.7018C171.887 35.0652 173.821 33.627 175.706 32.7838C177.343 32.0399 180.269 31.1467 182.154 30.7995ZM169.259 13.986L169.507 26.1374H149.667V81.6891H135.283V26.1374H115.443V13.7379L169.259 13.986ZM279.865 50.5895L297.274 31.3454L304.913 31.1969C309.129 31.1473 312.799 31.2466 312.997 31.445C313.245 31.6932 311.807 33.7264 309.773 36.0573C307.789 38.3388 303.474 43.1002 300.2 46.6217C294.794 52.4248 294.298 53.1198 294.794 54.0622C295.141 54.6573 296.728 56.9385 298.365 59.1208C299.952 61.3031 303.921 66.6603 307.144 71.0251C310.319 75.3898 313.146 79.308 313.345 79.7047C313.593 80.1013 313.84 80.3493 313.939 80.2008C314.088 80.052 319.495 65.1226 337.995 13.986L346.228 13.8366C353.767 13.7374 354.561 13.8369 354.81 14.5807C354.958 15.0767 358.529 25.096 362.795 36.8014C367.011 48.5068 372.368 63.3373 374.649 69.6364C376.931 75.985 378.815 81.2923 378.815 81.4411C378.81 81.5896 375.434 81.6393 363.837 81.4411L361.902 76.2331C360.861 73.3563 359.62 70.0827 358.479 66.8092L333.433 67.0573L331.3 73.7526C330.11 77.4213 329.068 80.7435 328.919 81.0436C328.77 81.5396 325.248 81.6891 298.465 81.6891L284.329 62.3454L279.617 67.0573V81.6891H265.729V13.2418H279.617L279.865 50.5895ZM396.175 81.6891H382.287V13.2418H396.175V81.6891ZM417.999 81.6891H404.111V13.2418H417.999V81.6891ZM194.952 58.4274C194.754 58.4274 193.762 58.7247 192.819 59.0719C191.877 59.4687 189.298 60.0146 187.115 60.3122C184.933 60.6593 182.304 61.2537 181.213 61.7497C180.171 62.196 178.981 63.1883 178.634 63.9323C178.237 64.7259 177.939 65.9168 177.939 66.6608C177.94 67.4544 178.386 68.7933 178.932 69.6364C179.576 70.7275 180.568 71.4718 181.759 71.819C182.8 72.1661 184.982 72.3145 186.619 72.1657C188.256 72.0169 190.34 71.5208 191.232 70.9753C192.125 70.4791 193.365 69.2397 193.91 68.2975C194.704 67.0079 195.051 65.4696 195.15 62.444C195.299 60.2125 195.2 58.3783 194.952 58.4274ZM350.347 42.2575C348.065 35.4128 346.081 30.2054 345.883 30.6022C345.733 31.0018 343.799 36.6051 341.617 43.0016C339.435 49.3995 337.65 54.8055 337.649 55.0045C337.649 55.2525 341.419 55.401 346.081 55.401C350.694 55.401 354.513 55.2525 354.513 55.0045C354.512 54.8055 352.628 49.0522 350.347 42.2575ZM448.008 41.0172C447.165 41.0668 445.626 41.3646 444.535 41.7614C443.444 42.1582 441.957 43.1005 441.163 43.8444C440.419 44.6379 439.477 45.8782 439.08 46.7213C438.683 47.5149 438.187 48.9536 437.988 49.8463L437.592 51.4333H457.68C457.68 48.9534 457.283 47.3164 456.787 46.2252C456.291 45.1342 455.249 43.7951 454.406 43.1999C453.613 42.6047 452.174 41.9103 451.231 41.5631C450.289 41.2656 448.851 41.0173 448.008 41.0172Z" fill="#125046"/>
<path d="M55.8259 34.5199C63.117 27.2288 69.5153 21.0289 70.0609 20.7313C70.6065 20.4337 71.6481 20.1857 72.3921 20.1857C73.3179 20.1857 74.3595 20.7643 75.5168 21.9216C76.9552 23.36 77.2528 24.0048 77.2528 27.8736L61.133 43.8445C52.2547 52.6732 44.4676 60.1131 43.7733 60.3611C42.9301 60.7083 42.0869 60.7083 41.1445 60.3611C40.4005 60.0635 36.0358 56.0956 31.4726 51.5324C26.8599 46.9693 22.7928 42.6541 22.396 41.8606C21.9992 41.1166 21.7016 39.827 21.7016 39.0334C21.7016 37.9918 22.2472 36.9998 23.3879 35.8094C24.7271 34.4207 25.4215 34.0735 26.9591 34.0735C28.7447 34.1231 29.3399 34.5199 42.5333 47.7133L55.8259 34.5199Z" fill="#125046"/>
<path d="M19.172 68.8426C19.172 68.297 19.5192 67.5034 19.9656 67.1066C20.6104 66.4618 22.0984 66.313 27.7031 66.313C33.9526 66.313 34.6966 66.4122 35.5894 67.305C36.135 67.8506 36.5814 68.6938 36.5814 69.1402C36.5814 69.6362 36.1846 70.4298 35.6886 70.9257C34.9446 71.6697 33.903 71.8185 27.5047 71.7689C20.7096 71.7689 20.164 71.7193 19.7176 70.7769C19.42 70.2314 19.2216 69.3386 19.172 68.8426Z" fill="#125046"/>
<path d="M41.0453 70.2314C40.3509 69.041 40.4005 68.793 41.1941 67.6026L42.0373 66.313H60.141C71.2017 66.313 78.6416 66.5114 79.2368 66.809C79.9311 67.1562 80.2287 67.801 80.2287 68.8922C80.2783 69.785 79.9807 70.8265 79.6335 71.1241C79.1376 71.6201 74.5248 71.7193 41.8389 71.5209L41.0453 70.2314Z" fill="#125046"/>
<path d="M19.2216 80.5976C19.2216 79.8536 19.5688 78.9112 20.0152 78.5144C20.66 77.8696 22.148 77.7208 27.9511 77.7208C34.8454 77.7208 35.143 77.7704 35.887 78.812C36.2838 79.4568 36.631 80.3 36.631 80.6968C36.5814 81.0936 36.1846 81.8376 35.7382 82.3336C34.9942 83.0776 33.9526 83.1768 27.7031 83.1768C22.5448 83.1768 20.3128 83.028 19.8664 82.532C19.5192 82.2344 19.2216 81.3416 19.2216 80.5976Z" fill="#125046"/>
<path d="M41.0949 81.5896C40.4005 80.3992 40.4005 80.2008 41.1941 79.0104L42.0869 77.7208H60.4386C76.0624 77.7208 78.8896 77.82 79.5343 78.4648C79.9311 78.8616 80.2783 79.804 80.2783 80.548C80.2783 81.292 80.0303 82.1848 79.6831 82.532C79.1872 82.9784 74.5744 83.1272 41.8389 82.9288L41.0949 81.5896Z" fill="#125046"/>
</svg>
