<svg width="20" height="20" viewBox="0 0 20 20" fill="none" xmlns="http://www.w3.org/2000/svg">
<path d="M19.3625 7.3475C18.0583 3.8425 14.8358 1.31166 11.1542 0.89833C8.26417 0.57583 5.48667 1.45416 3.33667 3.37583C2.2877 4.31462 1.44838 5.46397 0.873459 6.74893C0.298535 8.0339 0.000912959 9.42561 0 10.8333C0 13.3942 1.05083 15.9483 2.8825 17.84C3.69833 18.6833 4.875 19.1667 6.11083 19.1667H13.8875C15.1275 19.1667 16.3108 18.6775 17.1342 17.8242C19.86 14.9942 20.715 10.9792 19.3625 7.3475ZM16.5342 17.245C15.8667 17.9367 14.9017 18.3333 13.8867 18.3333H6.11083C5.09917 18.3333 4.14083 17.9425 3.48167 17.2608C1.79833 15.5225 0.833333 13.18 0.833333 10.8333C0.833333 8.22666 1.94833 5.73583 3.89333 3.99666C5.56458 2.49009 7.7366 1.65925 9.98667 1.66583C10.3425 1.66583 10.7008 1.68583 11.0625 1.72666C14.4342 2.105 17.3858 4.425 18.5817 7.63916C19.8208 10.9675 19.0358 14.6483 16.5342 17.245ZM14.8775 5.955C14.7994 5.87688 14.6934 5.833 14.5829 5.833C14.4724 5.833 14.3665 5.87688 14.2883 5.955L10.8408 9.4025C10.587 9.24928 10.2965 9.1675 10 9.16583C9.08083 9.16583 8.33333 9.91333 8.33333 10.8325C8.33333 11.7517 9.08083 12.4992 10 12.4992C10.9192 12.4992 11.6667 11.7517 11.6667 10.8325C11.6667 10.5242 11.5767 10.2392 11.43 9.99166L14.8775 6.54416C14.9556 6.46603 14.9995 6.36007 14.9995 6.24958C14.9995 6.1391 14.9556 6.03313 14.8775 5.955ZM9.99917 11.6667C9.77815 11.6667 9.56619 11.5789 9.40991 11.4226C9.25363 11.2663 9.16583 11.0543 9.16583 10.8333C9.16583 10.6123 9.25363 10.4004 9.40991 10.2441C9.56619 10.0878 9.77815 10 9.99917 10C10.2202 10 10.4321 10.0878 10.5884 10.2441C10.7447 10.4004 10.8325 10.6123 10.8325 10.8333C10.8325 11.0543 10.7447 11.2663 10.5884 11.4226C10.4321 11.5789 10.2202 11.6667 9.99917 11.6667ZM16.1108 8.16666C16.4787 9.00747 16.6677 9.91558 16.6658 10.8333C16.6669 12.4737 16.0621 14.0566 14.9675 15.2783C14.8934 15.3601 14.79 15.4094 14.6799 15.4153C14.5697 15.4212 14.4616 15.3834 14.3792 15.31C14.297 15.2362 14.2474 15.1327 14.2415 15.0224C14.2356 14.9121 14.2737 14.8039 14.3475 14.7217C15.3049 13.6529 15.8337 12.2682 15.8325 10.8333C15.8325 10.0217 15.6692 9.2375 15.3475 8.5C15.3072 8.39947 15.3077 8.28722 15.3488 8.18702C15.3898 8.08682 15.4683 8.00655 15.5675 7.96322C15.6668 7.91988 15.779 7.91688 15.8804 7.95486C15.9818 7.99284 16.0645 8.0688 16.1108 8.16666ZM9.99917 5C6.78333 5 4.16583 7.6175 4.16583 10.8333C4.16583 12.2717 4.69333 13.6525 5.65083 14.7217C5.68838 14.7622 5.7175 14.8098 5.73647 14.8617C5.75545 14.9136 5.76391 14.9688 5.76137 15.024C5.75883 15.0792 5.74533 15.1333 5.72166 15.1833C5.698 15.2332 5.66463 15.2779 5.62351 15.3148C5.58239 15.3518 5.53434 15.3801 5.48215 15.3983C5.42997 15.4165 5.37468 15.4241 5.31953 15.4207C5.26437 15.4173 5.21044 15.4029 5.16088 15.3785C5.11132 15.3541 5.06711 15.32 5.03083 15.2783C3.93626 14.0566 3.33146 12.4737 3.3325 10.8333C3.3325 7.1575 6.32333 4.16666 9.99917 4.16666C10.9258 4.16666 11.8225 4.35333 12.6658 4.72166C12.7637 4.76803 12.8397 4.85067 12.8776 4.95209C12.9156 5.0535 12.9126 5.16571 12.8693 5.26495C12.8259 5.36419 12.7457 5.44266 12.6455 5.48374C12.5453 5.52481 12.433 5.52526 12.3325 5.485C11.5967 5.16351 10.8021 4.99836 9.99917 5Z" fill="white"/>
</svg>
